<?xml version="1.0" encoding="utf-8"?>
<!-- Generator: Adobe Illustrator 22.1.0, SVG Export Plug-In . SVG Version: 6.00 Build 0)  -->
<svg version="1.1" id="Layer_1" xmlns="http://www.w3.org/2000/svg" xmlns:xlink="http://www.w3.org/1999/xlink" x="0px" y="0px"
	 viewBox="0 0 100 100" style="enable-background:new 0 0 100 100;" xml:space="preserve">
<path d="M96.656,6.376l1.063-4.248l-4.198,1.243c-1.463,0.433-2.669,0.729-3.646,0.889c-2.888,0.545-5.757,0.822-8.527,0.822H79.53
	c-2.256,0-5.097-0.198-8.466-0.591c-0.979-0.106-2.256-0.275-3.794-0.503l-2.322-0.344l-1.527,7.171l2.456,0.514
	c1.447,0.302,2.714,0.518,3.753,0.64c2.912,0.357,6.04,0.538,9.295,0.538c1.113,0,2.308-0.036,3.566-0.107L2.317,92.324l5.004,5.533
	l80.132-80.053c-0.09,1.143-0.134,2.17-0.134,3.098v0.862c0,2.619,0.194,5.55,0.577,8.712c0.071,1.009,0.243,2.199,0.511,3.539
	l0.477,2.389l7.436-1.285l-0.504-2.517c-0.275-1.375-0.469-2.506-0.581-3.402c-0.384-2.735-0.578-5.353-0.578-7.782
	c0-2.373,0.181-4.874,0.536-7.437C95.554,11.373,96.046,8.814,96.656,6.376z"/>
</svg>
