<?xml version="1.0" encoding="utf-8"?>
<!-- Generator: Adobe Illustrator 22.1.0, SVG Export Plug-In . SVG Version: 6.00 Build 0)  -->
<svg version="1.1" id="Layer_1" xmlns="http://www.w3.org/2000/svg" xmlns:xlink="http://www.w3.org/1999/xlink" x="0px" y="0px"
	 viewBox="0 0 137.24 137.24" style="enable-background:new 0 0 137.24 137.24;" xml:space="preserve">
<style type="text/css">
	.st0{fill:#FFFFFF;}
</style>
<path class="st0" d="M66.487,130.67l2.251,3.755l2.09-3.848c0.728-1.341,1.372-2.402,1.949-3.206
	c1.656-2.428,3.489-4.652,5.448-6.611l1.286-1.286c1.595-1.595,3.744-3.464,6.404-5.568c0.768-0.618,1.79-1.4,3.039-2.327
	l1.886-1.399l-3.991-6.151l-2.1,1.373c-1.237,0.81-2.285,1.553-3.106,2.201c-2.312,1.807-4.651,3.89-6.953,6.192
	c-0.787,0.787-1.606,1.657-2.446,2.598L72.42,3.188l-7.451-0.374l-0.056,113.268c-0.745-0.872-1.44-1.629-2.096-2.285l-0.609-0.609
	c-1.852-1.852-4.062-3.787-6.569-5.752c-0.764-0.663-1.727-1.383-2.863-2.141l-2.026-1.352l-4.349,6.166l2.136,1.424
	c1.167,0.777,2.104,1.441,2.816,1.995c2.205,1.662,4.194,3.376,5.911,5.094c1.678,1.678,3.319,3.574,4.88,5.638
	C63.734,126.358,65.195,128.515,66.487,130.67z"/>
</svg>
