<?xml version="1.0" encoding="utf-8"?>
<!-- Generator: Adobe Illustrator 22.1.0, SVG Export Plug-In . SVG Version: 6.00 Build 0)  -->
<svg version="1.1" xmlns="http://www.w3.org/2000/svg" xmlns:xlink="http://www.w3.org/1999/xlink" x="0px" y="0px"
	 viewBox="0 0 68.5 39.2" style="enable-background:new 0 0 68.5 39.2;" xml:space="preserve">
<g>
	<path d="M9.6,15.5c-0.1,0.1-0.2,0.3-0.4,0.5C9,16.2,9,16.4,8.9,16.5c0,0.1-0.1,0.1-0.1,0.1c0,0,0,0-0.1-0.1c0-0.1-0.1-0.1-0.2-0.2
		c-0.1-0.1-0.2-0.1-0.3-0.2C8.1,16,8,16,7.8,16c-0.3,0-0.6,0.1-0.9,0.3c-0.3,0.2-0.6,0.4-0.8,0.6c-0.4,0.3-0.7,0.7-1,1
		c-0.3,0.4-0.6,0.8-0.8,1.2c-0.3,0.4-0.5,0.8-0.8,1.3c-0.2,0.4-0.5,0.9-0.8,1.3c0,0.1-0.1,0.1-0.2,0.1c0,0-0.1-0.1-0.3-0.2
		c-0.1-0.1-0.2-0.2-0.2-0.3c0-0.1,0.1-0.3,0.2-0.5c0.3-0.6,0.6-1.1,1-1.7s0.6-1.1,0.9-1.6c0.3-0.5,0.5-0.9,0.8-1.3
		c0.2-0.4,0.4-0.6,0.5-0.8c0.1-0.2,0.2-0.3,0.2-0.3s0.1,0,0.3,0.1c0.2,0.1,0.2,0.2,0.2,0.4c0,0.1,0,0.2-0.1,0.3
		c-0.1,0.1-0.1,0.3-0.2,0.4c-0.1,0.1-0.2,0.3-0.3,0.4c-0.1,0.1-0.1,0.2-0.2,0.3c-0.1,0.1-0.1,0.1,0,0.1s0.1,0,0.1-0.1
		c0.2-0.2,0.4-0.4,0.7-0.7c0.3-0.2,0.6-0.5,0.9-0.7c0.3-0.2,0.6-0.4,0.9-0.5c0.3-0.1,0.6-0.2,0.8-0.2c0.2,0,0.3,0,0.5,0.1
		C9.5,15.3,9.6,15.4,9.6,15.5z"/>
	<path d="M16,18.1c-0.3,0.4-0.7,0.9-1.2,1.3c-0.5,0.5-1,0.9-1.5,1.2c-0.6,0.4-1.1,0.7-1.7,0.9c-0.6,0.2-1.2,0.3-1.8,0.3
		c-0.9,0-1.4-0.4-1.4-1.3c0-0.6,0.1-1.2,0.4-1.8c0.3-0.6,0.7-1.2,1.1-1.8c0.5-0.5,1-1,1.5-1.4C12,15.2,12.5,15,13,15
		c0.3,0,0.5,0.1,0.6,0.1c0.1,0.1,0.2,0.2,0.2,0.4c0,0.2-0.1,0.5-0.2,0.8s-0.4,0.5-0.7,0.8c-0.3,0.2-0.7,0.5-1.1,0.6
		c-0.5,0.2-1,0.3-1.6,0.3c-0.1,0.2-0.2,0.5-0.3,0.9c-0.1,0.4-0.2,0.8-0.2,1.2c0,0.8,0.4,1.2,1.1,1.2c0.5,0,0.9-0.1,1.4-0.3
		c0.5-0.2,1-0.5,1.4-0.8s0.9-0.7,1.3-1.1c0.4-0.4,0.7-0.8,1-1.1c0,0,0.1,0,0.1,0C16,18,16,18,16,18.1z M12.9,15.7
		c0-0.3-0.1-0.4-0.4-0.4c-0.2,0-0.4,0.1-0.6,0.2c-0.2,0.2-0.4,0.3-0.6,0.6c-0.2,0.2-0.4,0.5-0.6,0.8c-0.2,0.3-0.3,0.6-0.4,0.8
		c0,0,0.1,0,0.2,0c0.1,0,0.2,0,0.2,0c0.6,0,1.1-0.2,1.5-0.6C12.6,16.8,12.9,16.3,12.9,15.7z"/>
	<path d="M28.8,2.1c0,0.3-0.1,0.7-0.3,1.2s-0.5,1.2-0.9,1.9c-0.4,0.7-0.9,1.5-1.5,2.3c-0.6,0.8-1.3,1.6-2,2.4s-1.6,1.6-2.5,2.3
		c-0.9,0.7-1.9,1.4-2.9,1.9c-0.2,0.3-0.4,0.8-0.8,1.3c-0.3,0.5-0.6,1.1-0.9,1.7c-0.3,0.6-0.6,1.2-0.8,1.8c-0.2,0.6-0.3,1.1-0.3,1.5
		c0,0.6,0.3,1,0.9,1c0.5,0,1-0.1,1.6-0.4c0.5-0.3,1.1-0.6,1.5-1c0.5-0.4,0.9-0.8,1.4-1.3c0.4-0.5,0.8-0.9,1.1-1.2
		c0.1-0.1,0.2-0.2,0.2-0.1c0,0.1,0,0.1-0.1,0.2c-0.4,0.4-0.8,0.9-1.3,1.4c-0.5,0.5-1,1-1.6,1.4c-0.6,0.4-1.1,0.8-1.7,1.1
		c-0.6,0.3-1.2,0.4-1.8,0.4c-0.5,0-0.9-0.1-1.1-0.4s-0.3-0.6-0.3-0.9s0.2-0.9,0.5-1.5c0.3-0.7,0.7-1.4,1.1-2.1
		c0.4-0.7,0.8-1.4,1.3-2.1c0.4-0.7,0.7-1.2,0.9-1.5c0.3-0.6,0.7-1.2,1.1-1.8c0.4-0.6,0.7-1.2,1.1-1.8c0.4-0.6,0.7-1.2,1-1.7
		c0.3-0.5,0.6-1,0.9-1.5c0.3-0.5,0.7-1,1-1.5c0.4-0.5,0.8-0.9,1.4-1.4C25.6,2.9,26.3,2.4,27,2c0.6-0.3,1.1-0.5,1.3-0.5
		c0.2,0,0.3,0,0.4,0.1C28.8,1.8,28.8,1.9,28.8,2.1z M27.5,2.9c0-0.3-0.1-0.5-0.4-0.5c-0.1,0-0.2,0-0.3,0.1s-0.3,0.2-0.5,0.4
		c-0.2,0.2-0.4,0.5-0.7,0.8C25.3,4,25,4.4,24.6,5c-0.2,0.2-0.4,0.5-0.7,1c-0.3,0.4-0.7,1-1.1,1.7s-1,1.5-1.6,2.6
		c-0.6,1-1.4,2.2-2.2,3.6c1.2-0.7,2.3-1.5,3.4-2.5c1-1,2-2,2.7-3c0.8-1,1.4-2,1.8-3C27.2,4.3,27.5,3.5,27.5,2.9z"/>
	<path d="M28.2,18.1c-0.3,0.4-0.7,0.9-1.2,1.3c-0.5,0.5-1,0.9-1.5,1.2c-0.6,0.4-1.1,0.7-1.7,0.9c-0.6,0.2-1.2,0.3-1.8,0.3
		c-0.9,0-1.4-0.4-1.4-1.3c0-0.6,0.1-1.2,0.4-1.8c0.3-0.6,0.7-1.2,1.1-1.8c0.5-0.5,1-1,1.5-1.4c0.5-0.4,1.1-0.6,1.6-0.6
		c0.3,0,0.5,0.1,0.6,0.1c0.1,0.1,0.2,0.2,0.2,0.4c0,0.2-0.1,0.5-0.2,0.8s-0.4,0.5-0.7,0.8c-0.3,0.2-0.7,0.5-1.1,0.6
		c-0.5,0.2-1,0.3-1.6,0.3c-0.1,0.2-0.2,0.5-0.3,0.9c-0.1,0.4-0.2,0.8-0.2,1.2c0,0.8,0.4,1.2,1.1,1.2c0.5,0,0.9-0.1,1.4-0.3
		c0.5-0.2,1-0.5,1.4-0.8s0.9-0.7,1.3-1.1c0.4-0.4,0.7-0.8,1-1.1c0,0,0.1,0,0.1,0C28.2,18,28.2,18,28.2,18.1z M25.1,15.7
		c0-0.3-0.1-0.4-0.4-0.4c-0.2,0-0.4,0.1-0.6,0.2c-0.2,0.2-0.4,0.3-0.6,0.6c-0.2,0.2-0.4,0.5-0.6,0.8c-0.2,0.3-0.3,0.6-0.4,0.8
		c0,0,0.1,0,0.2,0c0.1,0,0.2,0,0.2,0c0.6,0,1.1-0.2,1.5-0.6C24.9,16.8,25.1,16.3,25.1,15.7z"/>
	<path d="M37.2,17.5c-0.5,0.6-1,1.1-1.5,1.7c-0.6,0.6-1.1,1.1-1.7,1.5c-0.6,0.5-1.1,0.8-1.7,1.1c-0.6,0.3-1.1,0.4-1.5,0.4
		c-0.4,0-0.7-0.1-0.8-0.3c-0.2-0.2-0.2-0.4-0.2-0.8c0-0.3,0.1-0.7,0.3-1.1c0.2-0.5,0.4-1,0.8-1.5c-0.3,0.3-0.6,0.7-0.9,1.1
		c-0.3,0.4-0.7,0.7-1.1,1c-0.4,0.3-0.7,0.6-1.1,0.8c-0.4,0.2-0.7,0.3-1,0.3c-0.4,0-0.6-0.2-0.6-0.6c0-0.5,0.2-1,0.5-1.7
		c0.4-0.7,0.8-1.4,1.5-2c0.6-0.6,1.3-1.2,2.1-1.7c0.8-0.5,1.6-0.7,2.4-0.7c0.1-0.2,0.2-0.3,0.3-0.4c0.1-0.1,0.2-0.1,0.2-0.2l0.8-0.2
		l0.1,0c-0.1,0.1-0.2,0.2-0.3,0.4c-0.1,0.2-0.2,0.3-0.3,0.5c0.1,0,0.2,0,0.4,0c0.2,0,0.4,0,0.5,0.1c0.1,0,0.1,0.1,0.1,0.1
		s0,0.1-0.1,0.1c-0.1,0-0.3-0.1-0.5-0.1c-0.2,0-0.4,0-0.5,0c-0.9,1.6-1.6,2.9-2,3.9c-0.4,1-0.6,1.7-0.6,2.1c0,0.2,0,0.3,0.1,0.5
		c0.1,0.1,0.3,0.2,0.6,0.2c0.3,0,0.7-0.1,1.1-0.3c0.4-0.2,0.9-0.5,1.4-1c0.5-0.4,1-0.9,1.5-1.4c0.5-0.5,1-1.1,1.5-1.7
		c0-0.1,0.1-0.1,0.1,0C37.1,17.4,37.2,17.5,37.2,17.5z M32.5,15.2c-0.7,0-1.3,0.2-1.9,0.7c-0.6,0.5-1.2,1-1.7,1.7
		c-0.5,0.7-0.9,1.3-1.2,1.9c-0.3,0.6-0.4,1.1-0.4,1.4c0,0.2,0.1,0.2,0.2,0.2s0.3-0.1,0.6-0.2s0.5-0.4,0.9-0.6s0.6-0.6,1-0.9
		c0.3-0.4,0.6-0.8,0.9-1.2c0.3-0.5,0.6-1,0.9-1.5C32,16.2,32.3,15.7,32.5,15.2L32.5,15.2z"/>
	<path d="M39.7,16.1c-0.1,0.1-0.1,0.1-0.1,0c-0.1-0.3-0.4-0.4-0.8-0.4c-0.3,0-0.6,0.1-0.8,0.2s-0.4,0.4-0.4,0.7c0,0.2,0,0.3,0.1,0.5
		c0.1,0.2,0.2,0.4,0.4,0.6c0.2,0.2,0.3,0.5,0.4,0.7c0.1,0.2,0.2,0.5,0.2,0.8c0,0.5-0.1,0.9-0.4,1.3s-0.5,0.6-0.9,0.8
		c-0.3,0.2-0.7,0.3-1,0.4c-0.3,0.1-0.6,0.1-0.8,0.1c-1.2,0-1.9-0.4-2-1.2c0.1-0.1,0.2-0.1,0.3-0.2c0.1-0.1,0.2-0.2,0.3-0.3
		c0,0,0.1,0,0.1,0.1c0.1,0.4,0.3,0.7,0.6,0.9c0.3,0.3,0.6,0.4,1,0.4c0.2,0,0.3,0,0.6,0c0.2,0,0.4-0.1,0.6-0.2
		c0.2-0.1,0.4-0.3,0.5-0.5c0.1-0.2,0.2-0.5,0.2-0.8c0-0.3-0.1-0.5-0.2-0.7c-0.1-0.2-0.2-0.4-0.3-0.6c-0.1-0.2-0.2-0.4-0.4-0.6
		c-0.1-0.2-0.2-0.4-0.2-0.7c0-0.2,0.1-0.5,0.3-0.8c0.2-0.3,0.4-0.5,0.6-0.8c0.3-0.2,0.5-0.4,0.9-0.6c0.3-0.2,0.6-0.2,0.9-0.2
		c0.3,0,0.5,0.1,0.5,0.3c-0.1,0.1-0.1,0.2-0.2,0.3C39.8,15.9,39.7,16,39.7,16.1z"/>
	<path d="M48.3,18.1c-0.3,0.4-0.7,0.9-1.2,1.3c-0.5,0.5-1,0.9-1.5,1.2c-0.6,0.4-1.1,0.7-1.7,0.9c-0.6,0.2-1.2,0.3-1.8,0.3
		c-0.9,0-1.4-0.4-1.4-1.3c0-0.6,0.1-1.2,0.4-1.8c0.3-0.6,0.7-1.2,1.1-1.8c0.5-0.5,1-1,1.5-1.4c0.5-0.4,1.1-0.6,1.6-0.6
		c0.3,0,0.5,0.1,0.6,0.1c0.1,0.1,0.2,0.2,0.2,0.4c0,0.2-0.1,0.5-0.2,0.8s-0.4,0.5-0.7,0.8c-0.3,0.2-0.7,0.5-1.1,0.6
		c-0.5,0.2-1,0.3-1.6,0.3c-0.1,0.2-0.2,0.5-0.3,0.9c-0.1,0.4-0.2,0.8-0.2,1.2c0,0.8,0.4,1.2,1.1,1.2c0.5,0,0.9-0.1,1.4-0.3
		c0.5-0.2,1-0.5,1.4-0.8s0.9-0.7,1.3-1.1c0.4-0.4,0.7-0.8,1-1.1c0,0,0.1,0,0.1,0C48.3,18,48.3,18,48.3,18.1z M45.2,15.7
		c0-0.3-0.1-0.4-0.4-0.4c-0.2,0-0.4,0.1-0.6,0.2c-0.2,0.2-0.4,0.3-0.6,0.6c-0.2,0.2-0.4,0.5-0.6,0.8c-0.2,0.3-0.3,0.6-0.4,0.8
		c0,0,0.1,0,0.2,0c0.1,0,0.2,0,0.2,0c0.6,0,1.1-0.2,1.5-0.6C44.9,16.8,45.2,16.3,45.2,15.7z"/>
</g>
</svg>
