<?xml version="1.0" encoding="utf-8"?>
<!-- Generator: Adobe Illustrator 22.1.0, SVG Export Plug-In . SVG Version: 6.00 Build 0)  -->
<svg version="1.1" id="Layer_1" xmlns="http://www.w3.org/2000/svg" xmlns:xlink="http://www.w3.org/1999/xlink" x="0px" y="0px"
	 viewBox="0 0 68.5 39.2" style="enable-background:new 0 0 68.5 39.2;" xml:space="preserve">
<g id="interview">
	<path d="M9.9,17.7c-0.5,0.6-1,1.2-1.7,1.8c-0.6,0.6-1.2,1-1.7,1.4c-0.4,0.3-0.8,0.5-1.2,0.6c-0.4,0.1-0.8,0.2-1.1,0.2
		c-0.1,0-0.3,0-0.4,0s-0.3-0.1-0.4-0.2c-0.1-0.1-0.2-0.2-0.3-0.3c-0.1-0.1-0.1-0.3-0.1-0.5c0-0.3,0.1-0.6,0.3-1.1
		c0.2-0.5,0.4-0.9,0.7-1.4c0.3-0.5,0.5-0.9,0.8-1.4s0.5-0.8,0.6-1c0.1-0.2,0.3-0.3,0.5-0.4c0.2-0.1,0.4-0.2,0.5-0.2
		c0.1,0,0.1,0,0.1,0.1c0,0,0,0.1,0,0.2c0,0.1-0.1,0.1-0.1,0.2C6,16.1,5.8,16.5,5.5,17S5,17.9,4.8,18.4c-0.2,0.4-0.4,0.9-0.5,1.2
		C4.1,20,4,20.3,4,20.5c0,0.2,0.1,0.4,0.2,0.5c0.1,0.1,0.3,0.2,0.5,0.2c0.4,0,0.8-0.1,1.3-0.4s1-0.6,1.4-1c0.5-0.4,0.9-0.8,1.3-1.2
		c0.4-0.4,0.7-0.8,0.9-1.1c0.1-0.1,0.2-0.1,0.2-0.1C9.9,17.5,9.9,17.6,9.9,17.7z M8.5,11c0,0.2-0.1,0.5-0.3,0.7
		C8,12,7.7,12.1,7.5,12.1c-0.2,0-0.4-0.1-0.4-0.4c0-0.3,0.1-0.5,0.3-0.8c0.2-0.2,0.4-0.4,0.7-0.4C8.4,10.6,8.5,10.8,8.5,11z"/>
	<path d="M17.7,17.8c-0.4,0.5-0.8,1-1.2,1.5c-0.5,0.5-1,1-1.5,1.4c-0.5,0.4-1.1,0.7-1.6,1c-0.6,0.3-1.1,0.4-1.6,0.4
		c-0.2,0-0.5,0-0.7-0.1c-0.2-0.1-0.3-0.2-0.3-0.5c0-0.3,0.1-0.6,0.3-1.1c0.2-0.4,0.4-0.9,0.7-1.4s0.5-1,0.8-1.5
		c0.3-0.5,0.5-1,0.7-1.4c0-0.1,0-0.2,0-0.3c0-0.1-0.1-0.1-0.2,0c-0.2,0.1-0.5,0.3-0.8,0.6c-0.3,0.2-0.6,0.5-0.9,0.8
		s-0.6,0.5-0.9,0.8c-0.3,0.3-0.5,0.5-0.7,0.8c-0.3,0.5-0.6,1-0.8,1.4c-0.2,0.4-0.5,0.9-0.9,1.4c-0.1,0.1-0.1,0.2-0.2,0.2
		c-0.1,0-0.2-0.1-0.3-0.3C7.7,21.2,7.7,21,7.7,21c0-0.2,0.1-0.4,0.4-0.7c0.2-0.3,0.5-0.7,0.8-1c0.3-0.6,0.6-1.3,1-2
		c0.3-0.7,0.6-1.3,0.9-1.9c0.1-0.1,0.1-0.1,0.3-0.1c0.1,0,0.2,0,0.3,0.1c0.1,0.1,0.1,0.2,0.1,0.3c0,0.1-0.1,0.4-0.4,0.8
		c-0.3,0.5-0.6,1-0.9,1.6c0.4-0.3,0.8-0.7,1.2-1.1c0.4-0.4,0.9-0.7,1.3-1.1c0.4-0.3,0.8-0.6,1.1-0.8s0.5-0.3,0.6-0.3
		c0.1,0,0.2,0,0.2,0.1c0.1,0.1,0.1,0.2,0.1,0.3c0,0.1-0.1,0.2-0.1,0.4c-0.2,0.3-0.5,0.7-0.8,1.2c-0.3,0.5-0.6,1-0.9,1.5
		c-0.3,0.5-0.5,1-0.7,1.5c-0.2,0.5-0.3,0.9-0.3,1.1c0,0.2,0,0.4,0.2,0.5c0.1,0.1,0.3,0.1,0.5,0.1c0.3,0,0.7-0.1,1.2-0.4
		c0.5-0.3,0.9-0.6,1.4-1c0.5-0.4,1-0.8,1.4-1.3c0.4-0.5,0.8-0.9,1.1-1.4c0-0.1,0.1-0.1,0.2,0C17.9,17.6,17.8,17.6,17.7,17.8z"/>
	<path d="M23.1,10.7c-0.2,0-0.3,0.1-0.5,0.2c-0.2,0.1-0.4,0.2-0.4,0.4c-0.5,0.6-0.9,1.3-1.3,2c-0.4,0.7-0.8,1.4-1.2,2.1h3.7
		c0.1,0,0.1,0.1,0.1,0.1s0,0.1-0.1,0.1c-0.2,0-0.4,0-0.7,0c-0.3,0-0.7,0-1,0c-0.4,0-0.8,0-1.2,0.1c-0.4,0-0.8,0-1.1,0.1
		c-0.6,1-1,1.9-1.3,2.5c-0.3,0.7-0.4,1.3-0.4,1.8c0,0.7,0.3,1.1,1,1.1c0.3,0,0.7-0.1,1.1-0.3c0.4-0.2,0.8-0.4,1.3-0.7
		c0.1-0.1,0.1-0.1,0.2,0c0.1,0.1,0,0.1-0.1,0.2c-0.7,0.4-1.3,0.8-1.9,1s-1.2,0.3-1.8,0.3c-0.3,0-0.6-0.1-0.8-0.3
		c-0.2-0.2-0.4-0.5-0.4-1c0-0.4,0.2-1,0.5-1.8c0.4-0.8,0.9-1.7,1.6-2.9c-0.2,0-0.5,0-0.9,0.1c-0.4,0-0.6,0-0.6,0
		c-0.1,0-0.1,0-0.1-0.1c0.1-0.1,0.2-0.3,0.4-0.4l1.5,0c0.2-0.3,0.4-0.6,0.6-1c0.2-0.4,0.4-0.7,0.7-1.1c0.2-0.4,0.4-0.7,0.7-1.1
		c0.2-0.4,0.4-0.7,0.6-1c0.2-0.1,0.5-0.2,0.9-0.4c0.4-0.2,0.7-0.3,1-0.4c0,0,0.1,0,0.1,0.1C23.3,10.6,23.2,10.6,23.1,10.7z"/>
	<path d="M29.7,18.1c-0.3,0.4-0.7,0.9-1.2,1.3c-0.5,0.5-1,0.9-1.5,1.2c-0.6,0.4-1.1,0.7-1.7,0.9c-0.6,0.2-1.2,0.3-1.8,0.3
		c-0.9,0-1.4-0.4-1.4-1.3c0-0.6,0.1-1.2,0.4-1.8c0.3-0.6,0.7-1.2,1.1-1.8c0.5-0.5,1-1,1.5-1.4c0.5-0.4,1.1-0.6,1.6-0.6
		c0.3,0,0.5,0.1,0.6,0.1c0.1,0.1,0.2,0.2,0.2,0.4c0,0.2-0.1,0.5-0.2,0.8s-0.4,0.5-0.7,0.8c-0.3,0.2-0.7,0.5-1.1,0.6
		c-0.5,0.2-1,0.3-1.6,0.3c-0.1,0.2-0.2,0.5-0.3,0.9c-0.1,0.4-0.2,0.8-0.2,1.2c0,0.8,0.4,1.2,1.1,1.2c0.5,0,0.9-0.1,1.4-0.3
		c0.5-0.2,1-0.5,1.4-0.8s0.9-0.7,1.3-1.1c0.4-0.4,0.7-0.8,1-1.1c0,0,0.1,0,0.1,0C29.6,18,29.7,18,29.7,18.1z M26.5,15.7
		c0-0.3-0.1-0.4-0.4-0.4c-0.2,0-0.4,0.1-0.6,0.2c-0.2,0.2-0.4,0.3-0.6,0.6c-0.2,0.2-0.4,0.5-0.6,0.8c-0.2,0.3-0.3,0.6-0.4,0.8
		c0,0,0.1,0,0.2,0c0.1,0,0.2,0,0.2,0c0.6,0,1.1-0.2,1.5-0.6C26.3,16.8,26.5,16.3,26.5,15.7z"/>
	<path d="M34.9,15.5c-0.1,0.1-0.2,0.3-0.4,0.5c-0.1,0.2-0.2,0.4-0.3,0.4c0,0.1-0.1,0.1-0.1,0.1c0,0,0,0-0.1-0.1
		c0-0.1-0.1-0.1-0.2-0.2c-0.1-0.1-0.2-0.1-0.3-0.2C33.5,16,33.3,16,33.1,16c-0.3,0-0.6,0.1-0.9,0.3c-0.3,0.2-0.6,0.4-0.8,0.6
		c-0.4,0.3-0.7,0.7-1,1c-0.3,0.4-0.6,0.8-0.8,1.2c-0.3,0.4-0.5,0.8-0.8,1.3c-0.2,0.4-0.5,0.9-0.8,1.3c0,0.1-0.1,0.1-0.2,0.1
		c0,0-0.1-0.1-0.3-0.2c-0.1-0.1-0.2-0.2-0.2-0.3c0-0.1,0.1-0.3,0.2-0.5c0.3-0.6,0.6-1.1,1-1.7s0.6-1.1,0.9-1.6
		c0.3-0.5,0.5-0.9,0.8-1.3c0.2-0.4,0.4-0.6,0.5-0.8c0.1-0.2,0.2-0.3,0.2-0.3s0.1,0,0.3,0.1c0.2,0.1,0.2,0.2,0.2,0.4
		c0,0.1,0,0.2-0.1,0.3c-0.1,0.1-0.1,0.3-0.2,0.4c-0.1,0.1-0.2,0.3-0.3,0.4c-0.1,0.1-0.1,0.2-0.2,0.3c-0.1,0.1-0.1,0.1,0,0.1
		s0.1,0,0.1-0.1c0.2-0.2,0.4-0.4,0.7-0.7c0.3-0.2,0.6-0.5,0.9-0.7c0.3-0.2,0.6-0.4,0.9-0.5c0.3-0.1,0.6-0.2,0.8-0.2
		c0.2,0,0.3,0,0.5,0.1C34.8,15.3,34.9,15.4,34.9,15.5z"/>
	<path d="M40.3,15.6c0,0.4-0.2,0.8-0.5,1.2c-0.3,0.4-0.6,0.9-1,1.4c-0.4,0.4-0.8,0.9-1.3,1.3c-0.5,0.4-1,0.8-1.4,1.1
		c-0.5,0.3-0.9,0.6-1.3,0.8c-0.4,0.2-0.7,0.3-0.9,0.3l-0.5-0.5c0-0.1,0-0.1,0.1-0.1c0.5,0,0.8-0.2,1.1-0.5c0.3-0.3,0.5-0.9,0.7-1.8
		c0-0.2,0.1-0.5,0.1-0.7s0.1-0.5,0.1-0.8s0.1-0.5,0.1-0.7c0-0.2,0.1-0.3,0.1-0.4c0.1-0.2,0.1-0.4,0.1-0.4c0,0-0.1-0.1-0.3-0.1
		l-0.9,0.1c-0.2-0.1-0.2-0.1,0-0.2c0.4-0.1,0.9-0.1,1.4-0.2c0.5-0.1,1-0.2,1.3-0.3c0.1,0,0.1,0.1,0,0.1c-0.1,0.1-0.2,0.1-0.3,0.2
		c-0.1,0.1-0.2,0.2-0.2,0.3c-0.1,0.2-0.2,0.5-0.3,0.8c-0.1,0.3-0.1,0.6-0.2,0.9s-0.1,0.6-0.2,0.8c-0.1,0.2-0.1,0.4-0.1,0.5
		c-0.1,0.3-0.3,0.7-0.6,1c-0.3,0.3-0.6,0.6-0.8,0.8c-0.1,0.1-0.1,0.2,0,0.1c0.6-0.2,1.1-0.5,1.7-0.8s1-0.7,1.4-1.2
		c0.4-0.5,0.8-1,1-1.5c0.3-0.6,0.4-1.2,0.5-1.8c0.1-0.8-0.1-1.3-0.4-1.5c0,0-0.1,0,0-0.1c0,0,0.1,0,0.2,0c0.4,0,0.6,0.2,0.8,0.5
		C40.3,14.8,40.4,15.2,40.3,15.6z"/>
	<path d="M47.5,17.7c-0.5,0.6-1,1.2-1.7,1.8c-0.6,0.6-1.2,1-1.7,1.4c-0.4,0.3-0.8,0.5-1.2,0.6c-0.4,0.1-0.8,0.2-1.1,0.2
		c-0.1,0-0.3,0-0.4,0s-0.3-0.1-0.4-0.2c-0.1-0.1-0.2-0.2-0.3-0.3c-0.1-0.1-0.1-0.3-0.1-0.5c0-0.3,0.1-0.6,0.3-1.1
		c0.2-0.5,0.4-0.9,0.7-1.4c0.3-0.5,0.5-0.9,0.8-1.4s0.5-0.8,0.6-1c0.1-0.2,0.3-0.3,0.5-0.4c0.2-0.1,0.4-0.2,0.5-0.2
		c0.1,0,0.1,0,0.1,0.1c0,0,0,0.1,0,0.2c0,0.1-0.1,0.1-0.1,0.2c-0.3,0.4-0.5,0.8-0.8,1.3s-0.5,0.9-0.7,1.4c-0.2,0.4-0.4,0.9-0.5,1.2
		c-0.1,0.4-0.2,0.7-0.2,0.9c0,0.2,0.1,0.4,0.2,0.5c0.1,0.1,0.3,0.2,0.5,0.2c0.4,0,0.8-0.1,1.3-0.4s1-0.6,1.4-1
		c0.5-0.4,0.9-0.8,1.3-1.2c0.4-0.4,0.7-0.8,0.9-1.1c0.1-0.1,0.2-0.1,0.2-0.1C47.6,17.5,47.6,17.6,47.5,17.7z M46.2,11
		c0,0.2-0.1,0.5-0.3,0.7c-0.2,0.2-0.4,0.4-0.7,0.4c-0.2,0-0.4-0.1-0.4-0.4c0-0.3,0.1-0.5,0.3-0.8c0.2-0.2,0.4-0.4,0.7-0.4
		C46.1,10.6,46.2,10.8,46.2,11z"/>
	<path d="M53.6,18.1c-0.3,0.4-0.7,0.9-1.2,1.3c-0.5,0.5-1,0.9-1.5,1.2c-0.6,0.4-1.1,0.7-1.7,0.9c-0.6,0.2-1.2,0.3-1.8,0.3
		c-0.9,0-1.4-0.4-1.4-1.3c0-0.6,0.1-1.2,0.4-1.8c0.3-0.6,0.7-1.2,1.1-1.8c0.5-0.5,1-1,1.5-1.4c0.5-0.4,1.1-0.6,1.6-0.6
		c0.3,0,0.5,0.1,0.6,0.1c0.1,0.1,0.2,0.2,0.2,0.4c0,0.2-0.1,0.5-0.2,0.8s-0.4,0.5-0.7,0.8c-0.3,0.2-0.7,0.5-1.1,0.6
		c-0.5,0.2-1,0.3-1.6,0.3c-0.1,0.2-0.2,0.5-0.3,0.9c-0.1,0.4-0.2,0.8-0.2,1.2c0,0.8,0.4,1.2,1.1,1.2c0.5,0,0.9-0.1,1.4-0.3
		c0.5-0.2,1-0.5,1.4-0.8s0.9-0.7,1.3-1.1c0.4-0.4,0.7-0.8,1-1.1c0,0,0.1,0,0.1,0C53.5,18,53.6,18,53.6,18.1z M50.4,15.7
		c0-0.3-0.1-0.4-0.4-0.4c-0.2,0-0.4,0.1-0.6,0.2c-0.2,0.2-0.4,0.3-0.6,0.6c-0.2,0.2-0.4,0.5-0.6,0.8c-0.2,0.3-0.3,0.6-0.4,0.8
		c0,0,0.1,0,0.2,0c0.1,0,0.2,0,0.2,0c0.6,0,1.1-0.2,1.5-0.6C50.2,16.8,50.4,16.3,50.4,15.7z"/>
	<path d="M66,15.4c-0.3,0.1-0.6,0.2-1,0.2c-0.4,0.1-0.8,0.1-1.2,0.2c-0.4,0.1-0.8,0.1-1.2,0.1C62.3,16,62,16,61.8,16
		c-0.1,0-0.2,0.1-0.2,0.1c0,0.1,0,0.2,0,0.3c0,0.5-0.1,1.1-0.2,1.7c-0.1,0.6-0.3,1.1-0.6,1.6c-0.2,0.5-0.5,1-0.8,1.4
		c-0.3,0.4-0.6,0.7-0.8,1c-0.3,0.3-0.7,0.5-1,0.7C57.8,22.9,57.4,23,57,23c-0.5,0-0.9-0.2-1.2-0.5s-0.5-0.7-0.5-1.3
		c0-0.2,0-0.4,0.1-0.6c-0.4,0.2-0.8,0.4-1.3,0.7c-0.5,0.2-0.9,0.3-1.4,0.3c-0.2,0-0.4-0.1-0.6-0.2s-0.2-0.4-0.2-0.7
		c0-0.4,0.1-0.8,0.3-1.2c0.2-0.5,0.5-0.9,0.8-1.4c0.3-0.5,0.6-0.9,0.9-1.3c0.3-0.4,0.5-0.7,0.6-0.9c0.1-0.1,0.1-0.2,0.2-0.3
		c0.1-0.1,0.2-0.2,0.3-0.2c0.2,0,0.3-0.1,0.5-0.1c0.2,0,0.4-0.1,0.5-0.1c0.1,0,0.1,0,0.1,0.1c0,0-0.1,0.1-0.2,0.1
		c-0.1,0-0.3,0.2-0.4,0.3c-0.3,0.3-0.6,0.7-0.9,1.2c-0.3,0.5-0.6,0.9-0.8,1.4c-0.2,0.5-0.4,0.9-0.6,1.3c-0.1,0.4-0.2,0.8-0.2,1
		c0,0.1,0,0.2,0.1,0.3c0.1,0.1,0.2,0.1,0.3,0.1c0.1,0,0.3,0,0.6-0.1c0.3-0.1,0.7-0.3,1.2-0.7c0.2-0.8,0.5-1.5,0.8-2.3s0.8-1.4,1.3-2
		c0.1-0.1,0.3-0.3,0.5-0.5c0.2-0.2,0.5-0.3,0.8-0.3c0.2,0,0.3,0.1,0.3,0.2c0,0.1,0,0.2,0,0.3c0,0.1,0,0.3-0.1,0.6
		c-0.1,0.3-0.2,0.6-0.4,1c-0.2,0.4-0.5,0.8-0.9,1.3s-0.9,1-1.5,1.5c0,0.3,0,0.6,0.1,0.8c0,0.3,0.1,0.5,0.2,0.8s0.3,0.4,0.5,0.5
		c0.2,0.1,0.5,0.2,0.8,0.2c0.5,0,0.9-0.2,1.3-0.5c0.4-0.3,0.7-0.7,0.9-1.2c0.2-0.5,0.4-1.1,0.5-1.7c0.1-0.6,0.2-1.2,0.2-1.7
		c0-0.5,0-0.9-0.1-1.2c-0.1-0.3-0.2-0.5-0.6-0.5c-0.1-0.1-0.1-0.1,0-0.2c0.1,0,0.3,0,0.4-0.1c0.2-0.1,0.3-0.1,0.4-0.1
		c0,0,0.1,0,0.1,0.1c0,0,0.1,0.1,0.3,0.1c0.1,0.1,0.3,0.1,0.6,0.1c0.3,0.1,0.6,0.1,1.1,0.1c0.6,0,1.2,0,1.8-0.1
		c0.6-0.1,1-0.2,1.3-0.3c0.1,0,0.1,0,0.2,0.1C66.2,15.3,66.2,15.3,66,15.4z M58.5,16.2c0,0,0-0.1,0-0.2c0-0.1-0.1-0.2-0.2-0.2
		c-0.1,0-0.2,0.1-0.4,0.2c-0.2,0.2-0.4,0.4-0.6,0.7c-0.2,0.3-0.4,0.7-0.6,1.2c-0.2,0.5-0.3,1.1-0.4,1.7c0.8-0.6,1.4-1.3,1.7-1.9
		C58.3,17.2,58.5,16.7,58.5,16.2z"/>
</g>
</svg>
