<?xml version="1.0" encoding="utf-8"?>
<!-- Generator: Adobe Illustrator 22.1.0, SVG Export Plug-In . SVG Version: 6.00 Build 0)  -->
<svg version="1.1" id="Layer_1" xmlns="http://www.w3.org/2000/svg" xmlns:xlink="http://www.w3.org/1999/xlink" x="0px" y="0px"
	 viewBox="0 0 68.5 39.2" style="enable-background:new 0 0 68.5 39.2;" xml:space="preserve">
<g id="screening">
	<path d="M7.2,16.1c-0.1,0.1-0.1,0.1-0.1,0c-0.1-0.3-0.4-0.4-0.8-0.4c-0.3,0-0.6,0.1-0.8,0.2s-0.4,0.4-0.4,0.7c0,0.2,0,0.3,0.1,0.5
		c0.1,0.2,0.2,0.4,0.4,0.6c0.2,0.2,0.3,0.5,0.4,0.7c0.1,0.2,0.2,0.5,0.2,0.8c0,0.5-0.1,0.9-0.4,1.3s-0.5,0.6-0.9,0.8
		c-0.3,0.2-0.7,0.3-1,0.4c-0.3,0.1-0.6,0.1-0.8,0.1c-1.2,0-1.9-0.4-2-1.2c0.1-0.1,0.2-0.1,0.3-0.2c0.1-0.1,0.2-0.2,0.3-0.3
		c0,0,0.1,0,0.1,0.1c0.1,0.4,0.3,0.7,0.6,0.9c0.3,0.3,0.6,0.4,1,0.4c0.2,0,0.3,0,0.6,0c0.2,0,0.4-0.1,0.6-0.2
		c0.2-0.1,0.4-0.3,0.5-0.5c0.1-0.2,0.2-0.5,0.2-0.8c0-0.3-0.1-0.5-0.2-0.7c-0.1-0.2-0.2-0.4-0.3-0.6c-0.1-0.2-0.2-0.4-0.4-0.6
		c-0.1-0.2-0.2-0.4-0.2-0.7c0-0.2,0.1-0.5,0.3-0.8C4.8,16.5,5,16.2,5.3,16c0.3-0.2,0.5-0.4,0.9-0.6c0.3-0.2,0.6-0.2,0.9-0.2
		c0.3,0,0.5,0.1,0.5,0.3c-0.1,0.1-0.1,0.2-0.2,0.3C7.3,15.9,7.3,16,7.2,16.1z"/>
	<path d="M15.8,17.6c-0.3,0.4-0.6,0.8-1,1.2c-0.4,0.4-0.8,0.8-1.2,1.1c-0.4,0.4-0.8,0.7-1.2,0.9c-0.4,0.3-0.8,0.5-1.2,0.7
		c-0.3,0.1-0.6,0.2-0.8,0.3c-0.3,0-0.5,0.1-0.7,0.1c-1.1,0-1.6-0.5-1.6-1.4c0-0.4,0.1-0.7,0.2-1.1c0.4-0.9,0.9-1.8,1.6-2.5
		c0.7-0.7,1.4-1.3,2.2-1.6c0.2-0.1,0.4-0.1,0.6-0.1c0.7,0,1.1,0.3,1.1,0.9c0,0.3-0.1,0.5-0.2,0.7c-0.1,0.1-0.3,0.3-0.6,0.5l-0.1,0
		c0.1-0.2,0.1-0.3,0.1-0.5c0-0.2-0.1-0.4-0.2-0.6c-0.1-0.2-0.4-0.3-0.7-0.3c-0.4,0-0.7,0.1-1.1,0.4c-0.4,0.3-0.7,0.6-0.9,1
		c-0.3,0.4-0.5,0.9-0.6,1.4s-0.2,1.1-0.2,1.6c0,0.4,0.1,0.7,0.3,0.9s0.5,0.3,0.9,0.3c0.6,0,1.3-0.3,2.3-1c0.9-0.6,2-1.6,3-3
		c0.1-0.1,0.2-0.1,0.2-0.1C15.9,17.4,15.9,17.5,15.8,17.6z"/>
	<path d="M21,15.5c-0.1,0.1-0.2,0.3-0.4,0.5c-0.1,0.2-0.2,0.4-0.3,0.4c0,0.1-0.1,0.1-0.1,0.1c0,0,0,0-0.1-0.1c0-0.1-0.1-0.1-0.2-0.2
		c-0.1-0.1-0.2-0.1-0.3-0.2C19.6,16,19.5,16,19.2,16c-0.3,0-0.6,0.1-0.9,0.3c-0.3,0.2-0.6,0.4-0.8,0.6c-0.4,0.3-0.7,0.7-1,1
		c-0.3,0.4-0.6,0.8-0.8,1.2c-0.3,0.4-0.5,0.8-0.8,1.3c-0.2,0.4-0.5,0.9-0.8,1.3c0,0.1-0.1,0.1-0.2,0.1c0,0-0.1-0.1-0.3-0.2
		c-0.1-0.1-0.2-0.2-0.2-0.3c0-0.1,0.1-0.3,0.2-0.5c0.3-0.6,0.6-1.1,1-1.7s0.6-1.1,0.9-1.6c0.3-0.5,0.5-0.9,0.8-1.3
		c0.2-0.4,0.4-0.6,0.5-0.8c0.1-0.2,0.2-0.3,0.2-0.3s0.1,0,0.3,0.1c0.2,0.1,0.2,0.2,0.2,0.4c0,0.1,0,0.2-0.1,0.3
		c-0.1,0.1-0.1,0.3-0.2,0.4c-0.1,0.1-0.2,0.3-0.3,0.4c-0.1,0.1-0.1,0.2-0.2,0.3c-0.1,0.1-0.1,0.1,0,0.1s0.1,0,0.1-0.1
		c0.2-0.2,0.4-0.4,0.7-0.7c0.3-0.2,0.6-0.5,0.9-0.7c0.3-0.2,0.6-0.4,0.9-0.5c0.3-0.1,0.6-0.2,0.8-0.2c0.2,0,0.3,0,0.5,0.1
		C21,15.3,21,15.4,21,15.5z"/>
	<path d="M27.5,18.1c-0.3,0.4-0.7,0.9-1.2,1.3c-0.5,0.5-1,0.9-1.5,1.2c-0.6,0.4-1.1,0.7-1.7,0.9c-0.6,0.2-1.2,0.3-1.8,0.3
		c-0.9,0-1.4-0.4-1.4-1.3c0-0.6,0.1-1.2,0.4-1.8c0.3-0.6,0.7-1.2,1.1-1.8c0.5-0.5,1-1,1.5-1.4c0.5-0.4,1.1-0.6,1.6-0.6
		c0.3,0,0.5,0.1,0.6,0.1c0.1,0.1,0.2,0.2,0.2,0.4c0,0.2-0.1,0.5-0.2,0.8s-0.4,0.5-0.7,0.8c-0.3,0.2-0.7,0.5-1.1,0.6
		c-0.5,0.2-1,0.3-1.6,0.3c-0.1,0.2-0.2,0.5-0.3,0.9c-0.1,0.4-0.2,0.8-0.2,1.2c0,0.8,0.4,1.2,1.1,1.2c0.5,0,0.9-0.1,1.4-0.3
		c0.5-0.2,1-0.5,1.4-0.8s0.9-0.7,1.3-1.1c0.4-0.4,0.7-0.8,1-1.1c0,0,0.1,0,0.1,0C27.5,18,27.5,18,27.5,18.1z M24.3,15.7
		c0-0.3-0.1-0.4-0.4-0.4c-0.2,0-0.4,0.1-0.6,0.2c-0.2,0.2-0.4,0.3-0.6,0.6c-0.2,0.2-0.4,0.5-0.6,0.8c-0.2,0.3-0.3,0.6-0.4,0.8
		c0,0,0.1,0,0.2,0c0.1,0,0.2,0,0.2,0c0.6,0,1.1-0.2,1.5-0.6C24.1,16.8,24.3,16.3,24.3,15.7z"/>
	<path d="M33.6,18.1c-0.3,0.4-0.7,0.9-1.2,1.3c-0.5,0.5-1,0.9-1.5,1.2c-0.6,0.4-1.1,0.7-1.7,0.9c-0.6,0.2-1.2,0.3-1.8,0.3
		c-0.9,0-1.4-0.4-1.4-1.3c0-0.6,0.1-1.2,0.4-1.8c0.3-0.6,0.7-1.2,1.1-1.8c0.5-0.5,1-1,1.5-1.4c0.5-0.4,1.1-0.6,1.6-0.6
		c0.3,0,0.5,0.1,0.6,0.1c0.1,0.1,0.2,0.2,0.2,0.4c0,0.2-0.1,0.5-0.2,0.8s-0.4,0.5-0.7,0.8c-0.3,0.2-0.7,0.5-1.1,0.6
		c-0.5,0.2-1,0.3-1.6,0.3c-0.1,0.2-0.2,0.5-0.3,0.9c-0.1,0.4-0.2,0.8-0.2,1.2c0,0.8,0.4,1.2,1.1,1.2c0.5,0,0.9-0.1,1.4-0.3
		c0.5-0.2,1-0.5,1.4-0.8s0.9-0.7,1.3-1.1c0.4-0.4,0.7-0.8,1-1.1c0,0,0.1,0,0.1,0C33.6,18,33.6,18,33.6,18.1z M30.5,15.7
		c0-0.3-0.1-0.4-0.4-0.4c-0.2,0-0.4,0.1-0.6,0.2c-0.2,0.2-0.4,0.3-0.6,0.6c-0.2,0.2-0.4,0.5-0.6,0.8c-0.2,0.3-0.3,0.6-0.4,0.8
		c0,0,0.1,0,0.2,0c0.1,0,0.2,0,0.2,0c0.6,0,1.1-0.2,1.5-0.6C30.3,16.8,30.5,16.3,30.5,15.7z"/>
	<path d="M41.7,17.8c-0.4,0.5-0.8,1-1.2,1.5c-0.5,0.5-1,1-1.5,1.4c-0.5,0.4-1.1,0.7-1.6,1c-0.6,0.3-1.1,0.4-1.6,0.4
		c-0.2,0-0.5,0-0.7-0.1c-0.2-0.1-0.3-0.2-0.3-0.5c0-0.3,0.1-0.6,0.3-1.1c0.2-0.4,0.4-0.9,0.7-1.4s0.5-1,0.8-1.5
		c0.3-0.5,0.5-1,0.7-1.4c0-0.1,0-0.2,0-0.3c0-0.1-0.1-0.1-0.2,0c-0.2,0.1-0.5,0.3-0.8,0.6c-0.3,0.2-0.6,0.5-0.9,0.8
		s-0.6,0.5-0.9,0.8c-0.3,0.3-0.5,0.5-0.7,0.8c-0.3,0.5-0.6,1-0.8,1.4c-0.2,0.4-0.5,0.9-0.9,1.4c-0.1,0.1-0.1,0.2-0.2,0.2
		c-0.1,0-0.2-0.1-0.3-0.3c-0.1-0.2-0.1-0.4-0.1-0.4c0-0.2,0.1-0.4,0.4-0.7c0.2-0.3,0.5-0.7,0.8-1c0.3-0.6,0.6-1.3,1-2
		c0.3-0.7,0.6-1.3,0.9-1.9c0.1-0.1,0.1-0.1,0.3-0.1c0.1,0,0.2,0,0.3,0.1c0.1,0.1,0.1,0.2,0.1,0.3c0,0.1-0.1,0.4-0.4,0.8
		c-0.3,0.5-0.6,1-0.9,1.6c0.4-0.3,0.8-0.7,1.2-1.1c0.4-0.4,0.9-0.7,1.3-1.1c0.4-0.3,0.8-0.6,1.1-0.8s0.5-0.3,0.6-0.3
		c0.1,0,0.2,0,0.2,0.1c0.1,0.1,0.1,0.2,0.1,0.3c0,0.1-0.1,0.2-0.1,0.4c-0.2,0.3-0.5,0.7-0.8,1.2c-0.3,0.5-0.6,1-0.9,1.5
		c-0.3,0.5-0.5,1-0.7,1.5c-0.2,0.5-0.3,0.9-0.3,1.1c0,0.2,0,0.4,0.2,0.5c0.1,0.1,0.3,0.1,0.5,0.1c0.3,0,0.7-0.1,1.2-0.4
		c0.5-0.3,0.9-0.6,1.4-1c0.5-0.4,1-0.8,1.4-1.3c0.4-0.5,0.8-0.9,1.1-1.4c0-0.1,0.1-0.1,0.2,0C41.8,17.6,41.8,17.6,41.7,17.8z"/>
	<path d="M47,17.7c-0.5,0.6-1,1.2-1.7,1.8c-0.6,0.6-1.2,1-1.7,1.4c-0.4,0.3-0.8,0.5-1.2,0.6c-0.4,0.1-0.8,0.2-1.1,0.2
		c-0.1,0-0.3,0-0.4,0s-0.3-0.1-0.4-0.2c-0.1-0.1-0.2-0.2-0.3-0.3C40,21,40,20.8,40,20.6c0-0.3,0.1-0.6,0.3-1.1
		c0.2-0.5,0.4-0.9,0.7-1.4c0.3-0.5,0.5-0.9,0.8-1.4s0.5-0.8,0.6-1c0.1-0.2,0.3-0.3,0.5-0.4c0.2-0.1,0.4-0.2,0.5-0.2
		c0.1,0,0.1,0,0.1,0.1c0,0,0,0.1,0,0.2c0,0.1-0.1,0.1-0.1,0.2c-0.3,0.4-0.5,0.8-0.8,1.3s-0.5,0.9-0.7,1.4c-0.2,0.4-0.4,0.9-0.5,1.2
		c-0.1,0.4-0.2,0.7-0.2,0.9c0,0.2,0.1,0.4,0.2,0.5c0.1,0.1,0.3,0.2,0.5,0.2c0.4,0,0.8-0.1,1.3-0.4s1-0.6,1.4-1
		c0.5-0.4,0.9-0.8,1.3-1.2c0.4-0.4,0.7-0.8,0.9-1.1c0.1-0.1,0.2-0.1,0.2-0.1C47.1,17.5,47.1,17.6,47,17.7z M45.7,11
		c0,0.2-0.1,0.5-0.3,0.7c-0.2,0.2-0.4,0.4-0.7,0.4c-0.2,0-0.4-0.1-0.4-0.4c0-0.3,0.1-0.5,0.3-0.8c0.2-0.2,0.4-0.4,0.7-0.4
		C45.5,10.6,45.7,10.8,45.7,11z"/>
	<path d="M54.9,17.8c-0.4,0.5-0.8,1-1.2,1.5c-0.5,0.5-1,1-1.5,1.4c-0.5,0.4-1.1,0.7-1.6,1C50,21.9,49.5,22,48.9,22
		c-0.2,0-0.5,0-0.7-0.1c-0.2-0.1-0.3-0.2-0.3-0.5c0-0.3,0.1-0.6,0.3-1.1c0.2-0.4,0.4-0.9,0.7-1.4s0.5-1,0.8-1.5
		c0.3-0.5,0.5-1,0.7-1.4c0-0.1,0-0.2,0-0.3c0-0.1-0.1-0.1-0.2,0c-0.2,0.1-0.5,0.3-0.8,0.6c-0.3,0.2-0.6,0.5-0.9,0.8S48,17.7,47.8,18
		c-0.3,0.3-0.5,0.5-0.7,0.8c-0.3,0.5-0.6,1-0.8,1.4c-0.2,0.4-0.5,0.9-0.9,1.4c-0.1,0.1-0.1,0.2-0.2,0.2c-0.1,0-0.2-0.1-0.3-0.3
		c-0.1-0.2-0.1-0.4-0.1-0.4c0-0.2,0.1-0.4,0.4-0.7c0.2-0.3,0.5-0.7,0.8-1c0.3-0.6,0.6-1.3,1-2c0.3-0.7,0.6-1.3,0.9-1.9
		c0.1-0.1,0.1-0.1,0.3-0.1c0.1,0,0.2,0,0.3,0.1c0.1,0.1,0.1,0.2,0.1,0.3c0,0.1-0.1,0.4-0.4,0.8c-0.3,0.5-0.6,1-0.9,1.6
		c0.4-0.3,0.8-0.7,1.2-1.1c0.4-0.4,0.9-0.7,1.3-1.1c0.4-0.3,0.8-0.6,1.1-0.8s0.5-0.3,0.6-0.3c0.1,0,0.2,0,0.2,0.1
		c0.1,0.1,0.1,0.2,0.1,0.3c0,0.1-0.1,0.2-0.1,0.4c-0.2,0.3-0.5,0.7-0.8,1.2c-0.3,0.5-0.6,1-0.9,1.5c-0.3,0.5-0.5,1-0.7,1.5
		C49.1,20.3,49,20.7,49,21c0,0.2,0,0.4,0.2,0.5c0.1,0.1,0.3,0.1,0.5,0.1c0.3,0,0.7-0.1,1.2-0.4c0.5-0.3,0.9-0.6,1.4-1
		c0.5-0.4,1-0.8,1.4-1.3c0.4-0.5,0.8-0.9,1.1-1.4c0-0.1,0.1-0.1,0.2,0C55,17.6,55,17.6,54.9,17.8z"/>
	<path d="M60.6,13.6c0,0.2-0.1,0.4-0.2,0.5c-1,1.9-1.9,3.5-2.7,4.9c-0.8,1.4-1.6,2.8-2.3,4c-0.7,1.2-1.4,2.4-2.1,3.5
		c-0.7,1.1-1.4,2.3-2.2,3.6c-0.6,1-1.3,2-2.1,2.9c-0.8,0.9-1.6,1.7-2.5,2.3c-0.9,0.6-1.9,1.2-3,1.5c-1.1,0.4-2.2,0.6-3.5,0.6
		c-0.9,0-1.7-0.1-2.3-0.4c-0.6-0.3-1.1-0.6-1.4-1c-0.3-0.4-0.6-0.9-0.7-1.4c-0.1-0.5-0.2-1.1-0.2-1.7c0-0.2,0-0.5,0.1-0.8
		c0-0.3,0.1-0.5,0.1-0.6c0-0.1,0.1-0.1,0.1-0.1s0.1,0,0.1,0.2c0,0.1-0.1,0.3-0.1,0.5s-0.1,0.4-0.1,0.6c0,0.7,0.1,1.3,0.4,1.8
		c0.3,0.5,0.7,0.9,1.2,1.3c0.5,0.3,1.2,0.6,1.9,0.8c0.7,0.2,1.5,0.3,2.3,0.3c0.9,0,1.7-0.1,2.6-0.4c0.9-0.3,1.7-0.7,2.6-1.4
		c0.9-0.7,1.7-1.5,2.5-2.5c0.8-1,1.6-2.3,2.4-3.8c0.5-1,1.1-2,1.6-3.1s1.1-2.1,1.7-3.1c0.5-1,1-1.9,1.5-2.7c0.4-0.8,0.7-1.4,0.9-1.7
		c-0.4,0.5-0.8,1-1.2,1.5c-0.4,0.5-0.7,0.9-1.1,1.3c-0.3,0.4-0.6,0.6-0.9,0.9c-0.3,0.2-0.6,0.3-0.8,0.3c-0.2,0-0.3-0.1-0.5-0.2
		s-0.2-0.3-0.2-0.6c0-0.3,0.1-0.7,0.4-1.3c0.2-0.5,0.6-1.1,1-1.7c0.4-0.6,0.9-1.2,1.4-1.7c0.5-0.5,1-0.9,1.6-1.2
		c0.5-0.2,1-0.4,1.4-0.4c0.1,0,0.2,0,0.3,0c0.2-0.3,0.3-0.6,0.5-0.8c0.2-0.3,0.3-0.6,0.5-0.9c0.1-0.3,0.3-0.4,0.4-0.4
		c0.1,0,0.2,0.1,0.2,0.3C60.5,13.3,60.6,13.5,60.6,13.6z M58.6,15.4c-0.1,0-0.1,0-0.2,0c-0.1,0-0.1,0-0.2,0c-0.3,0-0.5,0-0.8,0.1
		c-0.3,0-0.5,0.2-0.6,0.3c-0.5,0.4-0.9,0.9-1.3,1.4c-0.4,0.5-0.7,1-0.9,1.5c-0.2,0.5-0.4,1-0.5,1.4c-0.1,0.4-0.2,0.7-0.2,0.9
		c0,0.2,0.1,0.3,0.2,0.3s0.4-0.2,0.7-0.5c0.4-0.3,0.8-0.8,1.2-1.4c0.5-0.6,0.9-1.2,1.4-1.9S58.3,16.1,58.6,15.4z"/>
</g>
</svg>
